<svg width="18" height="20" viewBox="0 0 18 20" fill="none" xmlns="http://www.w3.org/2000/svg">
<g id="Group 3">
<path id="Vector" fill-rule="evenodd" clip-rule="evenodd" d="M8.6199 5.06659C7.4554 4.54329 6.12461 4.41164 4.8635 4.69499C2.00686 5.33683 0 7.66694 0 10.3419V10.8901C0 14.0567 1.64999 17.0362 4.44814 18.9222L5.12383 19.3777C6.02792 19.9871 7.2312 20.0853 8.2401 19.6318L9.0665 19.2605C9.3577 19.1297 9.7006 19.1355 9.9861 19.2761L10.7868 19.6706C11.8265 20.1828 13.1002 20.0919 14.0394 19.4386L14.789 18.9171C16.0975 18.0068 17.1457 16.8549 17.8812 15.558C18.0312 15.2933 18.0292 14.9787 17.8758 14.7156C17.7223 14.4525 17.4368 14.2745 17.1116 14.2389C15.4981 14.0626 14.2241 12.7882 14.2241 11.2207C14.2241 9.66457 15.4797 8.39711 17.0765 8.20639C17.433 8.16383 17.7369 7.95054 17.8724 7.64778C18.008 7.34503 17.9543 6.99944 17.7318 6.74265C16.874 5.75273 15.6621 5.01445 14.2403 4.69499C12.9792 4.41164 11.6485 4.54329 10.4839 5.06659L9.5519 5.48541L8.6199 5.06659Z" fill="black"/>
<path id="Vector_2" fill-rule="evenodd" clip-rule="evenodd" d="M11 0C9.3431 0 8 1.22097 8 2.7271V3.63613C8 4.13817 8.4477 4.54516 9 4.54516H10C11.6569 4.54516 13 3.32419 13 1.81806V0.909032C13 0.406992 12.5523 0 12 0H11Z" fill="black"/>
</g>
</svg>
