<svg width="24" height="18" viewBox="0 0 24 18" fill="none" xmlns="http://www.w3.org/2000/svg">
<g id="icons">
<g id="card">
<path id="Vector" d="M20 0H4C1.8 0 0 1.8 0 4V5C0 5.6 0.4 6 1 6H23C23.6 6 24 5.6 24 5V4C24 1.8 22.2 0 20 0Z" fill="white"/>
<path id="Vector_2" d="M23 8H1C0.4 8 0 8.4 0 9V14C0 16.2 1.8 18 4 18H20C22.2 18 24 16.2 24 14V9C24 8.4 23.6 8 23 8ZM11 15H5C4.4 15 4 14.6 4 14C4 13.4 4.4 13 5 13H11C11.6 13 12 13.4 12 14C12 14.6 11.6 15 11 15ZM19 12H17C16.4 12 16 11.6 16 11C16 10.4 16.4 10 17 10H19C19.6 10 20 10.4 20 11C20 11.6 19.6 12 19 12Z" fill="white"/>
</g>
</g>
</svg>
